<svg xmlns="http://www.w3.org/2000/svg" width="432.54" height="432.54"><path d="M0 313.77v118.77h118.77L356.31 195 237.54 76.23 0 313.77zM103.64 396H73.09v-36.54H36.54V328.9l25.99-25.98 67.09 67.1L103.64 396zm143.04-271.23c4.18 0 6.28 2.1 6.28 6.28a6.6 6.6 0 0 1-2 4.86L96.21 290.65a6.63 6.63 0 0 1-4.85 2c-4.18 0-6.28-2.1-6.28-6.28 0-1.9.67-3.52 2-4.86l154.75-154.74a6.6 6.6 0 0 1 4.85-2zM421.98 77.65l-67.1-66.8C347.65 3.62 339 0 328.9 0c-10.28 0-18.84 3.62-25.69 10.85l-47.4 47.1L374.6 176.74l47.4-47.4c7.04-7.04 10.55-15.6 10.55-25.7 0-9.89-3.52-18.55-10.56-25.98z"/></svg>